<?xml version="1.0" encoding="UTF-8"?>
<svg width="192" height="192" viewBox="0 0 192 192" fill="none" xmlns="http://www.w3.org/2000/svg">
  <circle cx="96" cy="96" r="88" fill="#2C3E50"/>
  <path d="M96 40C73.9 40 56 57.9 56 80C56 102.1 73.9 120 96 120C118.1 120 136 102.1 136 80C136 57.9 118.1 40 96 40ZM96 112C78.3 112 64 97.7 64 80C64 62.3 78.3 48 96 48C113.7 48 128 62.3 128 80C128 97.7 113.7 112 96 112Z" fill="#2ECC71"/>
  <path d="M96 56C85 56 76 65 76 76C76 87 85 96 96 96C107 96 116 87 116 76C116 65 107 56 96 56ZM96 88C89.4 88 84 82.6 84 76C84 69.4 89.4 64 96 64C102.6 64 108 69.4 108 76C108 82.6 102.6 88 96 88Z" fill="#2ECC71"/>
</svg> 